 <svg version="1.0" xmlns="http://www.w3.org/2000/svg" width="700.000000pt" height="700.000000pt" viewBox="0 0 700.000000 700.000000" preserveAspectRatio="xMidYMid meet">
<metadata>
Created by potrace 1.12, written by Peter Selinger 2001-2015
</metadata>
<g transform="translate(0.000000,700.000000) scale(0.100000,-0.100000)" fill="#0000ff" stroke="none">
<path d="M3135 6400 c-216 -19 -350 -53 -513 -131 -148 -70 -230 -102 -357
-139 -145 -42 -192 -67 -278 -149 -41 -39 -118 -96 -177 -131 -138 -83 -163
-103 -376 -315 -178 -178 -225 -236 -298 -368 -21 -37 -67 -100 -103 -138 -88
-96 -119 -149 -149 -249 -45 -154 -75 -233 -140 -373 -132 -283 -148 -382
-148 -907 0 -525 16 -624 148 -907 65 -140 95 -219 140 -373 30 -100 61 -153
149 -249 36 -38 82 -101 103 -138 73 -132 120 -190 298 -368 213 -212 238
-232 376 -315 59 -35 136 -92 177 -131 88 -83 131 -106 290 -153 116 -34 168
-55 390 -155 207 -94 366 -116 833 -116 467 0 626 22 833 116 222 100 274 121
390 155 159 47 202 70 290 153 41 39 118 96 177 131 138 83 163 103 376 315
178 178 225 236 298 368 21 37 67 100 103 138 88 96 119 149 149 249 45 154
75 233 140 373 132 283 148 382 148 907 0 525 -16 624 -148 907 -65 140 -95
219 -140 373 -30 100 -61 153 -149 249 -36 38 -82 101 -103 138 -73 132 -120
190 -298 368 -213 212 -238 232 -376 315 -59 35 -136 92 -177 131 -88 83 -131
106 -290 153 -116 34 -168 55 -390 155 -104 47 -235 83 -368 101 -111 15 -694
22 -830 10z m-50 -1744 c52 -22 83 -52 106 -101 18 -38 19 -89 19 -1055 0
-966 -1 -1017 -19 -1055 -37 -81 -102 -115 -233 -123 -100 -5 -197 10 -246 40
-18 11 -45 41 -60 66 l-27 47 0 1025 0 1025 27 46 c32 55 65 78 133 96 70 18
248 11 300 -11z m1117 13 c73 -15 113 -42 146 -97 l27 -47 0 -1025 0 -1025
-27 -47 c-15 -25 -42 -55 -60 -66 -49 -30 -146 -45 -246 -40 -131 8 -196 42
-233 123 -18 38 -19 90 -19 1053 0 892 2 1017 15 1050 28 65 75 103 152 121
55 13 183 13 245 0z"></path>
</g>
</svg>