<?xml version="1.0" encoding="UTF-8" standalone="no"?>
<svg
   enable-background="new 0 0 24 24"
   height="24px"
   viewBox="0 0 24 24"
   width="24px"
   fill="#000000"
   version="1.1"
   id="svg12"
   sodipodi:docname="cable_white_24dp.svg"
   inkscape:version="1.1 (c4e8f9ed74, 2021-05-24)"
   xmlns:inkscape="http://www.inkscape.org/namespaces/inkscape"
   xmlns:sodipodi="http://sodipodi.sourceforge.net/DTD/sodipodi-0.dtd"
   xmlns="http://www.w3.org/2000/svg"
   xmlns:svg="http://www.w3.org/2000/svg">
  <defs
     id="defs16" />
  <sodipodi:namedview
     id="namedview14"
     pagecolor="#ffffff"
     bordercolor="#666666"
     borderopacity="1.0"
     inkscape:pageshadow="2"
     inkscape:pageopacity="0.0"
     inkscape:pagecheckerboard="0"
     showgrid="false"
     inkscape:zoom="36.375"
     inkscape:cx="12"
     inkscape:cy="11.972509"
     inkscape:window-width="3440"
     inkscape:window-height="1380"
     inkscape:window-x="0"
     inkscape:window-y="32"
     inkscape:window-maximized="1"
     inkscape:current-layer="svg12" />
  <g
     id="g4">
    <path
       d="M0,0h24v24H0V0z"
       fill="none"
       id="path2" />
  </g>
  <g
     id="g10"
     style="fill:#ffffff">
    <g
       id="g8"
       style="fill:#ffffff">
      <path
         d="M20,5V4c0-0.55-0.45-1-1-1h-2c-0.55,0-1,0.45-1,1v1h-1v4c0,0.55,0.45,1,1,1h1v7c0,1.1-0.9,2-2,2s-2-0.9-2-2V7 c0-2.21-1.79-4-4-4S5,4.79,5,7v7H4c-0.55,0-1,0.45-1,1v4h1v1c0,0.55,0.45,1,1,1h2c0.55,0,1-0.45,1-1v-1h1v-4c0-0.55-0.45-1-1-1H7 V7c0-1.1,0.9-2,2-2s2,0.9,2,2v10c0,2.21,1.79,4,4,4s4-1.79,4-4v-7h1c0.55,0,1-0.45,1-1V5H20z"
         id="path6"
         style="fill:#ffffff" />
    </g>
  </g>
</svg>
