<?xml version="1.0" encoding="UTF-8" standalone="no"?>
<svg
   height="24px"
   viewBox="0 0 24 24"
   width="24px"
   fill="#000000"
   version="1.1"
   id="svg8"
   sodipodi:docname="link_off_white_24dp.svg"
   inkscape:version="1.1 (c4e8f9ed74, 2021-05-24)"
   xmlns:inkscape="http://www.inkscape.org/namespaces/inkscape"
   xmlns:sodipodi="http://sodipodi.sourceforge.net/DTD/sodipodi-0.dtd"
   xmlns="http://www.w3.org/2000/svg"
   xmlns:svg="http://www.w3.org/2000/svg">
  <defs
     id="defs12" />
  <sodipodi:namedview
     id="namedview10"
     pagecolor="#ffffff"
     bordercolor="#666666"
     borderopacity="1.0"
     inkscape:pageshadow="2"
     inkscape:pageopacity="0.0"
     inkscape:pagecheckerboard="0"
     showgrid="false"
     inkscape:zoom="36.375"
     inkscape:cx="12"
     inkscape:cy="11.972509"
     inkscape:window-width="3440"
     inkscape:window-height="1380"
     inkscape:window-x="0"
     inkscape:window-y="32"
     inkscape:window-maximized="1"
     inkscape:current-layer="svg8" />
  <path
     d="M0 0h24v24H0V0z"
     fill="none"
     id="path2" />
  <path
     d="M17 7h-4v1.9h4c1.71 0 3.1 1.39 3.1 3.1 0 1.43-.98 2.63-2.31 2.98l1.46 1.46C20.88 15.61 22 13.95 22 12c0-2.76-2.24-5-5-5zm-1 4h-2.19l2 2H16zM2 4.27l3.11 3.11C3.29 8.12 2 9.91 2 12c0 2.76 2.24 5 5 5h4v-1.9H7c-1.71 0-3.1-1.39-3.1-3.1 0-1.59 1.21-2.9 2.76-3.07L8.73 11H8v2h2.73L13 15.27V17h1.73l4.01 4L20 19.74 3.27 3 2 4.27z"
     id="path4"
     style="fill:#ffffff" />
  <path
     d="M0 24V0"
     fill="none"
     id="path6" />
</svg>
