<?xml version="1.0" encoding="UTF-8" standalone="no"?>
<svg
   enable-background="new 0 0 24 24"
   height="24px"
   viewBox="0 0 24 24"
   width="24px"
   fill="#000000"
   version="1.1"
   id="svg14"
   sodipodi:docname="restart_alt_white_24dp.svg"
   inkscape:version="1.1 (c4e8f9ed74, 2021-05-24)"
   xmlns:inkscape="http://www.inkscape.org/namespaces/inkscape"
   xmlns:sodipodi="http://sodipodi.sourceforge.net/DTD/sodipodi-0.dtd"
   xmlns="http://www.w3.org/2000/svg"
   xmlns:svg="http://www.w3.org/2000/svg">
  <defs
     id="defs18" />
  <sodipodi:namedview
     id="namedview16"
     pagecolor="#ffffff"
     bordercolor="#666666"
     borderopacity="1.0"
     inkscape:pageshadow="2"
     inkscape:pageopacity="0.0"
     inkscape:pagecheckerboard="0"
     showgrid="false"
     inkscape:zoom="36.375"
     inkscape:cx="12"
     inkscape:cy="11.972509"
     inkscape:window-width="3440"
     inkscape:window-height="1380"
     inkscape:window-x="0"
     inkscape:window-y="32"
     inkscape:window-maximized="1"
     inkscape:current-layer="svg14" />
  <g
     id="g4">
    <path
       d="M0,0h24v24H0V0z"
       fill="none"
       id="path2" />
  </g>
  <g
     id="g12"
     style="fill:#ffffff">
    <g
       id="g10"
       style="fill:#ffffff">
      <path
         d="M12,5V2L8,6l4,4V7c3.31,0,6,2.69,6,6c0,2.97-2.17,5.43-5,5.91v2.02c3.95-0.49,7-3.85,7-7.93C20,8.58,16.42,5,12,5z"
         id="path6"
         style="fill:#ffffff" />
      <path
         d="M6,13c0-1.65,0.67-3.15,1.76-4.24L6.34,7.34C4.9,8.79,4,10.79,4,13c0,4.08,3.05,7.44,7,7.93v-2.02 C8.17,18.43,6,15.97,6,13z"
         id="path8"
         style="fill:#ffffff" />
    </g>
  </g>
</svg>
