<?xml version="1.0" encoding="UTF-8" standalone="no"?>
<svg
   enable-background="new 0 0 24 24"
   height="24px"
   viewBox="0 0 24 24"
   width="24px"
   fill="#000000"
   version="1.1"
   id="svg6"
   sodipodi:docname="videogame_asset_off_white_24dp.svg"
   inkscape:version="1.1 (c4e8f9ed74, 2021-05-24)"
   xmlns:inkscape="http://www.inkscape.org/namespaces/inkscape"
   xmlns:sodipodi="http://sodipodi.sourceforge.net/DTD/sodipodi-0.dtd"
   xmlns="http://www.w3.org/2000/svg"
   xmlns:svg="http://www.w3.org/2000/svg">
  <defs
     id="defs10" />
  <sodipodi:namedview
     id="namedview8"
     pagecolor="#ffffff"
     bordercolor="#666666"
     borderopacity="1.0"
     inkscape:pageshadow="2"
     inkscape:pageopacity="0.0"
     inkscape:pagecheckerboard="0"
     showgrid="false"
     inkscape:zoom="36.375"
     inkscape:cx="12"
     inkscape:cy="11.972509"
     inkscape:window-width="3440"
     inkscape:window-height="1380"
     inkscape:window-x="0"
     inkscape:window-y="32"
     inkscape:window-maximized="1"
     inkscape:current-layer="svg6" />
  <rect
     fill="none"
     height="24"
     width="24"
     y="0"
     id="rect2" />
  <path
     d="M21.19,21.19L2.81,2.81L1.39,4.22L3.3,6.13C2.54,6.41,2,7.15,2,8v8c0,1.1,0.9,2,2,2h11.17l4.61,4.61L21.19,21.19z M9,13v2H7 v-2H5v-2h2V9.83L10.17,13H9z M20.7,17.87C21.46,17.59,22,16.85,22,16V8c0-1.1-0.9-2-2-2H8.83L20.7,17.87z M17.5,9 c0.83,0,1.5,0.67,1.5,1.5S18.33,12,17.5,12S16,11.33,16,10.5S16.67,9,17.5,9z"
     id="path4"
     style="fill:#ffffff" />
</svg>
